<svg style="fill:green;color:white" xmlns="http://www.w3.org/2000/svg" width="300" height="200" viewBox="0,0,300,200"><rect width="100%" height="100%" fill="green"/><path fill="#8ce2e2" d="M219.03 106.82L218.94 106.73L218.92 106.70Q212.90 106.39 212.08 110.74L212.12 110.78L212.16 110.82Q211.93 112.39 212.20 113.64L212.16 113.60L212.08 113.52Q212.09 114.61 212.74 116.62L212.73 116.61L212.86 116.75Q214.45 121.32 219.18 121.10L219.20 121.12L219.08 121.01Q221.94 121.09 223.84 118.86L223.92 118.94L223.86 118.88Q225.61 116.77 225.61 113.83L225.56 113.78L225.67 113.89Q225.87 113.05 225.65 111.53L225.71 111.60L225.61 111.49Q225.47 110.16 224.88 109.18L225.04 109.34L225.01 109.32Q222.67 106.92 218.97 106.76ZM225.84 133.10L225.90 133.15L226.02 133.27Q223.24 133.92 211.71 134.47L211.76 134.51L211.67 134.42Q209.37 134.63 207.03 133.43L207.08 133.48L207.06 133.46Q208.19 132.03 210.80 129.48L210.73 129.40L210.77 129.44Q214.23 130.95 217.23 130.68L217.22 130.68L217.23 130.69Q221.35 130.30 222.55 129.91L222.55 129.91L222.61 129.97Q225.67 128.85 225.67 126.29L225.77 126.39L225.77 126.39Q225.77 126.06 225.66 125.74L225.74 125.81L225.44 123.40L225.53 123.48Q225.54 122.41 225.54 121.27L225.41 121.13L225.58 121.31Q223.53 124.43 218.69 124.43L218.65 124.38L218.75 124.48Q213.24 124.52 210.90 121.36L210.81 121.28L210.81 121.27Q209.21 119.07 208.06 112.76L208.04 112.74L208.09 112.79Q207.72 110.67 207.72 108.66L207.67 108.61L207.68 108.63Q207.73 106.12 209.04 104.71L209.03 104.70L208.97 104.64Q211.31 102.58 217.95 102.58L218.03 102.66L220.49 102.89L220.56 102.96Q225.06 103.38 226.96 106.16L226.93 106.12L226.97 106.16Q227.22 104.95 227.82 102.61L227.76 102.54L227.82 102.60Q230.36 101.99 232.86 100.96L232.90 101.00L232.87 100.97Q229.13 109.73 229.13 120.07L229.10 120.04L229.16 120.10Q229.07 123.81 229.61 127.57L229.65 127.61L229.57 127.53Q229.87 128.54 229.77 129.51L229.78 129.53L229.91 129.66Q229.57 131.55 227.83 132.64L227.76 132.57L227.83 132.64Q227.09 132.99 225.89 133.15ZM230.14 137.34L230.08 137.28L230.19 137.39Q232.21 137.40 233.30 136.04L233.47 136.21L233.34 136.08Q233.77 134.66 233.61 133.63L233.78 133.80L233.78 133.80Q233.60 132.86 233.33 131.77L233.35 131.80L233.25 131.70Q231.47 124.20 231.96 116.70L232.06 116.80L231.96 116.70Q232.55 109.02 235.59 102.11L235.48 102.00L232.47 103.34L232.52 103.39Q232.79 102.47 233.12 101.65L233.15 101.68L233.89 100.09L233.91 100.10Q230.51 101.44 227.36 102.04L227.48 102.16L227.30 101.97Q227.02 103.38 226.80 104.85L226.82 104.87L226.67 104.72Q223.72 102.04 217.95 102.04L218.03 102.11L215.45 102.03L215.39 101.97Q210.88 102.09 208.48 104.10L208.48 104.09L208.49 104.11Q207.03 105.37 207.09 108.09L207.07 108.07L207.08 108.08Q207.19 111.67 208.65 117.76L208.64 117.75L208.67 117.77Q209.32 120.49 211.06 122.51L211.20 122.64L211.50 122.94L211.59 123.03L211.66 123.11Q213.33 126.46 217.03 127.22L216.87 127.07L216.88 127.07Q218.91 127.53 220.98 127.58L221.06 127.66L221.12 127.72Q223.50 127.65 225.02 127.11L225.03 127.12L225.05 127.14Q224.09 129.28 220.28 129.77L220.29 129.78L220.44 129.92Q218.76 129.99 217.78 129.99L217.95 130.15L217.27 130.02L217.28 130.03Q213.24 130.01 210.85 128.65L210.90 128.70L208.42 131.12L208.55 131.25Q207.20 132.30 206.01 133.66L205.97 133.62L206.02 133.67Q207.50 134.50 208.91 134.77L208.88 134.73L207.60 135.96L207.68 136.04Q211.58 137.60 219.63 137.60L219.49 137.46L219.96 137.61L219.87 137.51Q225.08 137.56 230.19 137.39ZM221.72 110.11L221.61 110.00L221.75 110.13Q223.44 109.86 224.74 110.46L224.78 110.50L224.90 110.61Q225.15 111.31 225.26 112.28L225.28 112.30L225.19 112.21Q225.22 112.62 225.16 113.93L225.12 113.88L225.28 114.04Q225.16 116.75 223.58 118.60L223.54 118.56L223.50 118.52Q221.92 120.64 219.20 120.58L219.13 120.51L219.12 120.50Q217.07 120.41 215.87 119.81L215.96 119.89L215.87 119.81Q215.27 118.12 215.21 116.65L215.26 116.70L215.27 116.71Q215.17 110.57 221.75 110.13Z"/><path fill="#8eead3" d="M144.92 122.90L144.83 122.80L144.83 122.80Q139.03 106.89 131.69 99.77L131.57 99.64L131.60 99.68Q133.63 100.51 137.87 101.44L137.96 101.53L137.85 101.42Q143.03 107.14 146.67 116.65L146.66 116.64L146.62 116.60Q150.34 106.02 154.09 101.67L154.16 101.74L154.11 101.68Q156.85 101.43 160.33 100.45L160.48 100.60L160.34 100.46Q155.90 104.45 152.80 110.98L152.82 111.00L152.87 111.05Q152.36 112.01 147.52 122.89L147.49 122.85L147.39 122.75Q146.57 122.91 144.83 122.80ZM151.46 126.28L151.55 126.37L151.58 126.40Q156.32 108.79 162.85 102.10L162.87 102.12L160.72 102.80L160.69 102.77Q159.46 103.01 158.26 103.17L158.40 103.31L158.35 103.26Q159.01 102.67 160.18 101.42L160.18 101.42L160.26 101.50Q161.28 100.10 161.93 99.50L162.04 99.60L162.03 99.60Q158.76 100.41 153.87 101.12L154.03 101.27L153.99 101.23Q150.14 105.82 147.21 113.82L147.11 113.72L147.08 113.69Q144.77 107.73 142.16 104.20L142.14 104.18L141.48 104.28L141.39 104.19Q141.08 104.26 140.75 104.26L140.68 104.19L140.70 104.21Q140.38 103.73 137.94 100.79L137.95 100.80L137.98 100.84Q133.20 100.13 129.99 98.50L130.02 98.53L130.06 98.57Q138.74 106.65 144.45 123.40L144.34 123.29L145.82 123.36L145.91 123.45Q146.42 124.39 147.61 126.24L147.64 126.27L149.53 126.20L149.61 126.28Q150.52 126.16 151.45 126.27Z"/><path fill="#7ef0d4" d="M70.60 123.13L70.58 123.11L68.18 123.16L68.13 123.11Q63.32 123.13 61.96 120.09L61.83 119.96L61.79 119.92Q63.60 118.58 65.67 117.00L65.58 116.92L65.72 117.05Q66.51 120.12 70.59 119.91L70.45 119.77L70.51 119.83Q71.69 119.81 73.16 119.49L73.06 119.38L73.19 119.52Q74.53 118.79 74.42 117.43L74.27 117.29L74.27 117.28Q74.14 115.68 71.58 114.70L71.60 114.72L66.13 112.52L66.28 112.66Q62.93 110.73 62.45 105.67L62.39 105.62L62.52 105.75Q62.13 102.59 65.23 101.77L65.28 101.82L65.33 101.87Q66.53 101.39 70.78 101.39L70.90 101.51L70.86 101.47Q77.74 101.39 79.05 104.98L79.12 105.05L79.14 105.08Q78.10 105.72 77.07 106.37L77.15 106.45L75.17 107.85L75.11 107.79Q74.49 105.16 69.87 104.83L69.84 104.81L69.87 104.83Q69.03 104.86 67.56 105.46L67.45 105.35L67.49 105.39Q66.76 105.96 66.76 107.54L66.78 107.56L66.64 107.42Q67.15 108.96 69.76 109.94L69.89 110.07L69.89 110.07Q71.37 110.57 75.17 112.15L75.24 112.22L75.13 112.11Q77.66 113.22 77.94 116.87L78.07 117.00L78.11 117.04Q78.08 117.83 77.97 119.24L78.08 119.35L77.96 119.23Q78.03 120.61 77.21 121.53L77.26 121.58L77.07 121.38Q74.91 123.09 70.56 123.09ZM77.41 126.84L77.34 126.77L77.24 126.67Q78.57 126.74 80.52 126.31L80.58 126.36L80.64 126.42Q82.11 125.39 81.83 123.65L81.92 123.74L81.89 123.71Q81.77 122.88 81.34 120.60L81.25 120.51L81.27 120.53Q80.44 116.28 77.89 114.54L78.03 114.68L77.90 114.54Q77.29 112.68 75.49 111.65L75.48 111.64L75.35 111.51Q73.60 110.95 70.06 109.59L70.01 109.54L70.19 109.73Q70.32 108.98 70.70 108.81L70.79 108.91L70.60 108.71Q71.54 108.14 72.47 108.08L72.41 108.03L72.42 108.04Q73.57 107.99 74.66 108.37L74.81 108.53L74.82 108.64L74.88 108.53L75.20 108.58L75.28 108.72L75.12 108.56Q76.82 109.39 77.09 111.18L76.98 111.07L77.06 111.16Q78.78 109.89 81.50 107.49L81.52 107.51L81.62 107.61Q81.09 106.43 79.68 104.74L79.83 104.89L79.79 104.85Q78.06 100.90 70.78 100.74L70.92 100.88L70.83 100.79Q66.26 100.68 63.43 101.49L63.49 101.55L63.60 101.66Q61.56 102.45 61.89 105.44L61.91 105.47L61.74 105.29Q62.06 107.25 63.37 110.24L63.34 110.21L63.36 110.23Q64.08 111.76 65.54 112.80L65.49 112.74L65.52 112.77Q66.55 114.94 68.39 115.92L68.26 115.79L68.42 115.95Q69.65 116.20 71.01 116.74L71.15 116.88L73.70 117.80L73.75 117.84Q73.31 119.48 70.54 119.31L70.53 119.30L70.55 119.33Q69.94 119.43 68.20 118.99L68.20 118.99L68.11 118.69L67.95 118.84L67.93 118.82Q66.82 118.43 65.90 116.31L65.76 116.16L65.82 116.23Q62.76 118.44 61.18 120.07L61.13 120.02L61.26 120.16Q61.57 121.33 63.04 122.47L63.09 122.53L62.79 122.67L62.85 122.72Q64.81 125.66 70.85 126.21L70.81 126.17L70.87 126.22Q72.77 126.50 77.40 126.82Z"/><path d="M7 95 C151 23,158 48,297 20" stroke="#738ddd" fill="none"/></svg>